# xmcd CD database file
#
# Track frame offsets:
#	150
#	19538
#	36442
#	61787
#
# Disc length: 1184 seconds
#
# Revision: 0
# Processed by: cddbd v1.5.1PL2 Copyright (c) Steve Scherf et al.
# Submitted via: CDex 1.50
#
DISCID=28049e04
DTITLE=BEYONDS - シルトの岸辺で
DYEAR=2006
DGENRE=Japanese Indies
TTITLE0=シルトの岸辺で
TTITLE1=地下室の揺りかご
TTITLE2=緑色の光線
TTITLE3=FEDDDISH THINGS 2006 RAW MIX 《remix by TSUTCHIE(from SHAKKAZOMBIE)》
EXTD=YEAR: 2006
EXTT0=
EXTT1=
EXTT2=
EXTT3=
PLAYORDER=
